<?xml version="1.0" encoding="utf-8"?>
<!-- Generator: Adobe Illustrator 27.5.0, SVG Export Plug-In . SVG Version: 6.00 Build 0)  -->
<svg version="1.1" id="Layer_1" xmlns="http://www.w3.org/2000/svg" xmlns:xlink="http://www.w3.org/1999/xlink" x="0px" y="0px"
	 viewBox="0 0 4000 2663" style="enable-background:new 0 0 4000 2663;" xml:space="preserve">
<path style="fill:#040404;" d="M2941.866,1579.884c14.385-12.149,34.8-17.066,51.188-26.246
	c73.145-40.979,121.949-94.316,152.452-173.045c-60.784,58.132-135.993,49.163-183.045,131.748
	c-7.507,13.172-16.159,30.012-19.259,44.911c-11.696,11.479-24.804,22.806-33.772,36.614
	c-5.264-129.12,1.303-247.309,37.284-372.222c6.976-24.006,14.593-47.807,22.852-71.404c5.297-14.975,11.453-29.783,16.17-44.941
	c-71.526,124.145-105.149,255.259-112.503,397.61c-7.858-15.925-15.958-32.093-26.773-46.25
	c-35.705-46.747-99.656-59.69-151.258-81.732c78.584,62.825,59.292,121.071,175.668,154.085
	c-0.176,24.402-1.436,48.766-1.555,73.181c-0.26,52.27,4.917,115.487-11.457,165.167c-14.772,44.827-48.97,74.602-76.647,110.872
	c-21.122,27.685-35.015,57.72-42.795,91.587c-11.487-18.362-24.585-35.668-36.946-53.444
	c-32.991-47.447-66.965-93.848-101.637-140.08c-29.543-39.398-60.752-78.32-83.781-122.054
	c-11.541-21.922-20.591-45.244-24.418-69.814c-13.804-88.615,25.563-215.915,38.552-305.688
	c11.284-77.956,15.661-157.041,6.405-235.438c5.426-10.316,10.494-20.825,18.308-29.592c9.032-10.129,20.898-16.668,32.302-23.72
	c17.792-11,32.945-22.253,45.855-38.909c29.144-37.595,40.516-85.205,69.864-123.19c-57.465,24.211-124.912,68.43-149.324,128.326
	c-8.759,21.492-12.07,44.908-21.069,66.326c-19.801-130.852-57.961-266.379-130.193-378.51
	c-8.13-12.623-15.936-26.844-25.504-38.367c10.885,24.865,23.447,49.09,33.744,74.189c59.331,144.648,85.918,278.006,85.516,434.24
	c-11.65-19.628-27.233-37.246-38.334-56.877c-8.571-15.158-12.039-32.426-21.649-47.304
	c-40.361-62.501-117.359-84.393-184.938-103.583c13.769,12.551,28.575,24.901,40.174,39.556
	c18.706,23.636,32.94,50.093,55.008,71.093c19.207,18.278,43.031,32.286,67.653,41.934c11.217,4.395,24.153,7.777,34.328,14.357
	c17.644,11.411,45.777,55.779,46.836,76.939c1.248,24.99-4.772,53.663-9.348,78.228c-14.481,77.729-41.361,152.781-57.544,230.258
	c-6.05,28.963-11.611,58.396-12.141,88.063c-0.316,17.611,1.927,34.845,4.318,52.242
	c-58.282-61.404-118.782-120.674-176.809-182.274c-66.122-70.192-130.284-144.246-187.302-222.028
	c-10.198-13.911-26.063-29.174-31.914-45.446c-4.469-12.426-6.111-26.895-8.118-39.928c-8.187-53.118-9.849-106.358-12.991-159.911
	c-1.816-30.964-5.569-61.592-4.724-92.669c0.231-7.821,0.64-15.632,1.225-23.434c0.585-7.802,1.347-15.587,2.284-23.355
	c0.939-7.767,2.053-15.509,3.341-23.226c1.288-7.717,2.751-15.402,4.387-23.052c1.639-7.651,3.448-15.262,5.429-22.831
	c1.981-7.57,4.133-15.09,6.456-22.561c2.322-7.471,4.812-14.886,7.471-22.245c2.659-7.359,5.483-14.654,8.472-21.884
	c20.727-4.943,36.018-14.356,47.495-32.706c18.285-29.238,17.442-62.094,25.278-94.322c-20.56,22.987-44.438,43.299-63.688,67.34
	c-12.473,15.571-20.295,33.024-28.708,50.944c-18.713,39.856-34.012,78.699-40.78,122.489c-3.624-12.9-9.519-25.089-15.08-37.241
	c-21.224-46.375-48.873-86.654-76.26-129.342c-35.456-55.262-61.363-111.81-82.742-173.675
	c-5.872-16.992-12.663-34.601-15.383-52.428c-3.952-25.935,16.378-58.415,16.826-87.905c0.762-49.701-23.832-83.233-35.135-128.697
	c-1.841-7.399-10.089-57.991-11.331-59.212c-35.744,47.287-46.778,109.419-38.937,167.27c3.848,28.382,12.475,55.738,29.653,78.885
	c6.779,9.134,14.841,17.84,19.108,28.489c4.897,12.223,7.229,26.246,10.374,39.046l17.855,72.198
	c-6.85-5.811-13.705-10.983-21.566-15.378c2.554-23.615-1.332-40.987-16.429-59.606c-25.632-31.611-67.584-45.433-104.489-59.087
	c-14.42-5.335-29.009-11.334-43.976-14.891c27.565,41.44,61.325,98.678,104.996,123.61c32.273,18.423,43.233,13.959,72.346,43.566
	c19.483,19.813,24.921,37.04,36.169,61.61c5.462,11.932,11.734,23.562,18.178,34.99c20.012,35.481,44.173,68.735,62.627,105.057
	c37.498,73.797,48.628,152.031,49.527,233.869c0.255,23.284,0.626,46.492-1.67,69.698c-12.905-18.981-23.544-39.508-35.596-59.038
	c-13.379-21.68-28.884-42.869-44.847-62.723c-91.673-114.023-227.05-160.566-354.736-220.888
	c-19.427-9.18-39.436-17.893-58.287-28.196c-10.402-20.929-18.494-45.033-19.373-68.575c-1.044-28.023,4.301-54.017-4.989-81.49
	c-9.798-28.973-31.323-51.542-47.449-76.896c-9.157-14.398-15.403-30.468-21.94-46.164c-5.388,60.227-11.782,140.584,29.37,190.255
	c8.587,10.366,18.932,17.228,30.264,24.264c3.797,15.828,5.375,32.031,8.793,47.918
	c-174.752-88.442-343.848-243.983-406.742-434.086c-10.058-30.402-13.297-61.349-21.214-92.078
	c-4.924,110.891,51.481,246.888,115.752,335.773c22.251,30.77,48.771,57.034,72.323,86.514c-17.968-5.424-37.46-8.645-54.595-16.269
	c-11.454-5.093-22.189-12.439-33.06-18.68c-5.259-3.029-10.631-5.841-16.116-8.436c-5.485-2.596-11.066-4.966-16.742-7.112
	c-5.676-2.146-11.428-4.061-17.26-5.745c-5.829-1.683-11.718-3.128-17.665-4.337c-67.571-13.307-114.486,15.905-183.766-20.208
	c35.482,54.465,95.444,89.985,158.681,103.068c4.248,0.84,8.516,1.551,12.806,2.131c4.29,0.581,8.593,1.031,12.91,1.352
	c4.317,0.321,8.639,0.51,12.966,0.568c4.329,0.059,8.655-0.013,12.979-0.216c4.325-0.204,8.64-0.538,12.943-1.003
	c4.304-0.464,8.589-1.058,12.857-1.783c4.269-0.725,8.512-1.578,12.727-2.559c4.217-0.982,8.4-2.089,12.548-3.323
	c11.278-3.466,21.971-8.76,33.21-12.162c18.678,4.23,46.487,8.311,63.347,16.058c15.492,7.117,44.888,36.246,60.403,48.086
	c15.545,11.704,31.483,22.843,47.814,33.419c16.331,10.578,33.015,20.567,50.052,29.966c44.2,24.328,89.286,46.888,135.257,67.681
	c76.392,34.078,156.474,64.941,225.751,112.581c5.663,3.849,11.222,7.842,16.677,11.981c5.456,4.137,10.8,8.415,16.032,12.831
	c5.232,4.418,10.345,8.967,15.339,13.649c4.996,4.683,9.866,9.495,14.609,14.433c4.745,4.937,9.357,9.994,13.837,15.171
	c4.482,5.178,8.825,10.469,13.03,15.872c4.203,5.403,8.264,10.913,12.182,16.529c3.918,5.616,7.687,11.33,11.306,17.143
	c22.869,36.161,40.478,75.506,58.519,114.211c14.813,31.774,30.155,63.497,43.893,95.75c-22.693-6.231-45.336-12.218-68.628-15.782
	c-81.334-12.452-165.407-2.366-246.629,6.383c-51.524,5.551-113.104,11.4-164.648,6.216c-14.535-13.358-26.169-29.126-36.635-45.789
	c3.163-10.142,6.524-20.297,7.779-30.888c7.713-65.17-26.992-136.678-52.985-194.733c-17.843,56.866-27.993,137.615,0.328,191.762
	c8.594,16.429,20.611,25.759,31.813,39.782c8.757,10.965,15.586,24.275,23.132,36.133
	c-168.59-25.135-289.908-109.052-396.602-239.287c11.881,25.876,28.805,51.032,45.766,73.871c4.084,5.536,8.27,10.995,12.556,16.376
	s8.672,10.681,13.155,15.9c4.481,5.218,9.059,10.353,13.732,15.403c4.672,5.049,9.435,10.01,14.291,14.884
	c4.857,4.874,9.801,9.656,14.833,14.346c5.034,4.692,10.151,9.288,15.352,13.789c5.203,4.503,10.487,8.907,15.851,13.214
	c5.366,4.305,10.81,8.51,16.33,12.615c5.521,4.105,11.115,8.107,16.783,12.007c5.67,3.898,11.41,7.689,17.219,11.375
	c5.808,3.685,11.682,7.263,17.624,10.733c5.942,3.468,11.945,6.825,18.011,10.071c6.066,3.247,12.189,6.382,18.37,9.401
	c6.181,3.02,12.416,5.925,18.706,8.716c6.288,2.789,12.626,5.461,19.014,8.016c6.386,2.557,12.818,4.993,19.296,7.311
	c8.85,3.319,17.786,6.385,26.809,9.198c9.021,2.811,18.115,5.366,27.282,7.665c9.169,2.297,18.394,4.333,27.677,6.109
	c9.283,1.774,18.608,3.285,27.975,4.532c-27.687,10.249-55.805,26.827-84.81,32.416c-21.97,4.237-40.615-3.669-64.042,5.156
	c-41.122,15.492-67.872,54.432-100.657,81.87c-20.289,16.982-41.893,30.679-63.441,45.83c74.734-12.411,171.561-8.12,220.271-77.219
	c6.954-9.865,12.656-21.067,20.336-30.33c100.715-33.052,193.241-54.564,299.525-57.531c93.14-2.597,171.819,8.548,256.059,51.101
	c70.235,35.479,141.959,95.544,190.562,156.981c-49-8.37-97.364-4.326-143.859,13.679c-22.317,8.643-44.058,18.625-67.421,24.252
	c-23.742,5.719-47.87,6.633-72.186,5.981c-5.454-31.512-26.133-55.392-51.6-73.484c-24.03-17.071-51.582-28.194-77.52-41.883
	c-9.626-5.181-19.002-10.78-28.128-16.796c-9.126-6.015-17.968-12.424-26.523-19.228c6.45,14.331,14.268,28.127,21.779,41.931
	c25.612,47.07,54.521,90.151,106.738,109.714c49.319,18.477,86.756,28.545,139.841,25.487
	c-26.05,15.472-65.848,37.119-94.764,44.603c-44.664-11.222-80.14-3.32-119.401,20.336c-32.064,19.319-61.928,42.942-93.272,63.545
	c51.414-3.502,108.194,1.568,157.604-15.806c27.99-9.842,40.383-26.335,63.849-40.819c20.389-12.586,46.808-17.771,68.643-29.36
	c59.955-31.82,83.858-65.246,157.235-62.066c20.398,0.75,40.597,3.167,60.596,7.252c20.919,4.365,51.404,8.959,67.516,23.323
	c13.508,12.042,25.201,27.751,37.128,41.432c23.137,26.544,46.281,53.375,70.029,79.359
	c98.403,107.67,205.686,207.804,289.986,327.554c12.615,17.917,27.636,36.655,36.635,56.607
	c-94.313-56.808-193.88-89.621-304.756-86.387c-12.582,0.642-25.219,1.057-37.771,2.108c-17.7-40.06-51.19-61.159-90.95-76.567
	c-25.051-9.707-50.383-14.405-77.044-16.778c29.721,42.359,71.536,83.377,121.598,99.908
	c-50.413,8.049-100.19,20.007-150.637,27.654c-39.721,6.02-81.103,9.908-121.275,7.153
	c-95.047-6.521-183.982-51.954-259.982-106.931c-9.75-7.053-19.594-14.512-28.489-22.617c18.467,23.964,41.713,44.735,65.201,63.632
	c62.842,50.559,133.67,88.154,214.676,98.694c65.089,8.469,130.155-0.158,194.418-10.644c40.524-6.61,81.095-13.649,122.138-16.141
	c63.059-3.83,132.288,3.965,192.515,23.215c31.497,10.069,62.382,24.311,91.745,39.436c30.388,15.653,95.51,53.889,115.698,79.476
	c9.855,12.49,24.906,74.462,30.872,93.045c7.634,23.773,16.014,47.531,24.474,71.034c24.109,66.99,62.853,130.281,103.498,188.383
	c8.238,11.777,15.706,25.66,26.936,34.832c7.451,6.086,15.999,7.746,25.25,9.205c24.102,3.802,110.254,18.925,127.3,7.041
	c3.614-2.521,5.297-5.597,5.964-9.934c1.408-9.151-2.019-16.918-7.484-24.086c-7.741-10.157-18.437-18.909-27.702-27.743
	c-13.318-12.694-26.014-25.566-37.773-39.739c-82.885-99.893-117.857-193.536-149.759-317.643
	c-3.346-13.007-6.537-26.047-10.529-38.878c-3.54-11.38-8.495-23.19-10.649-34.845c-1.332-7.209-1.011-15.011-0.125-22.258
	c10.982-90.028,96.458-139.841,118.081-216.806c11.869-42.24,11.795-89.323,10.328-132.946c-0.56-16.661-1.946-33.584-1.474-50.233
	C2919.313,1606.657,2929.302,1590.495,2941.866,1579.884z"/>
</svg>
