<?xml version="1.0" encoding="UTF-8"?>
<svg id="Layer_1" xmlns="http://www.w3.org/2000/svg" version="1.1" xmlns:xlink="http://www.w3.org/1999/xlink" viewBox="0 0 449.5 100">
  <!-- Generator: Adobe Illustrator 29.8.3, SVG Export Plug-In . SVG Version: 2.1.1 Build 3)  -->
  <defs>
    <style>
      .st0 {
        fill: none;
      }

      .st1 {
        clip-path: url(#clippath-1);
      }

      .st2 {
        clip-path: url(#clippath-2);
      }

      .st3 {
        clip-path: url(#clippath);
      }
    </style>
    <clipPath id="clippath">
      <rect class="st0" width="150" height="100"/>
    </clipPath>
    <clipPath id="clippath-1">
      <rect class="st0" x="149.8" width="150" height="100"/>
    </clipPath>
    <clipPath id="clippath-2">
      <rect class="st0" x="299.5" width="150" height="100"/>
    </clipPath>
  </defs>
  <g id="_x31_">
    <g class="st3">
      <path d="M130.9,98.8c1.3-10.8-7-15.3-7-15.3,4.5-.6,6.7,2,6.7,2-.9-5.6-6-10.8-6-10.8,7.3,2.2,11.3,10,11.3,10,0-7.4-3.9-13.8-3.9-13.8,9.3,8.4,9.7,17.7,9.7,17.7,1.5-3.5,0-8.4,0-8.4,8.6,9.5,0,19.7,0,19.7h-11v-1.2Z"/>
      <path d="M62.5,98.8c1.3-10.8-7-15.3-7-15.3,4.5-.6,6.7,2,6.7,2-.9-5.6-6-10.8-6-10.8,7.3,2.2,11.3,10,11.3,10,0-7.4-3.9-13.8-3.9-13.8,9.3,8.4,9.7,17.7,9.7,17.7,1.5-3.5,0-8.4,0-8.4,8.6,9.5,0,19.7,0,19.7h-11v-1.2Z"/>
      <g>
        <path d="M9.2,100s-1.8-19-17.1-20.6c0,0,9.8-1.6,14.9,3.5,0,0,0-12.4-3-19.2,0,0,5.6,6,8,17.3,0,0-1-15.7,8.5-19.4,0,0-5.5,5.5-2.8,18.2,0,0,3.7-9.5,12-10.4,0,0-5.1,4-6.6,12.2,0,0,6.8-10.2,19.4-2.6,0,0-20.8-1.1-18.4,21.2h-14.8Z"/>
        <path d="M-14.2,97.9c-4.8-21.4-28.1-14.7-28.1-14.7,18.2-10.3,28.5,5.9,28.5,5.9-3.2-13.5-21-13.1-21-13.1,18.2-4.8,24.2,9.1,24.2,9.1,2-19.8-13.1-24.2-13.1-24.2,20.2,2.8,15.5,28.9,15.5,28.9,3.6-5.9,10.7-9.9,10.7-9.9-9.5,7.1-10.7,19.8-10.7,19.8h-5.5l-.4-2Z"/>
        <path d="M3.5,98.3c1.8-15-9.8-21.2-9.8-21.2,6.2-.8,9.3,2.8,9.3,2.8-1.3-7.8-8.3-15-8.3-15,10.1,3.1,15.8,14,15.8,14,0-10.4-5.4-19.1-5.4-19.1,12.9,11.6,13.5,24.6,13.5,24.6,2.1-4.9,0-11.6,0-11.6,11.9,13.2,0,27.3,0,27.3H3.3l.2-1.7Z"/>
        <path d="M-9,100s-1.8-13.5-17.1-14.6c0,0,9.8-1.2,14.9,2.5,0,0,0-8.7-3-13.6,0,0,5.6,4.2,8,12.2,0,0-1-11.1,8.5-13.8,0,0-5.5,3.9-2.8,12.9,0,0,3.7-6.7,12-7.4,0,0-5.1,2.9-6.6,8.6,0,0,6.8-7.2,19.4-1.9,0,0-20.8-.8-18.4,15h-14.8Z"/>
      </g>
      <path d="M88.2,100s-1.5-16.3-14.6-17.6c0,0,8.4-1.4,12.7,3,0,0,0-10.5-2.6-16.4,0,0,4.8,5.1,6.8,14.8,0,0-.9-13.4,7.3-16.6,0,0-4.7,4.7-2.4,15.5,0,0,3.2-8.1,10.2-8.9,0,0-4.4,3.5-5.7,10.4,0,0,5.8-8.7,16.5-2.3,0,0-17.7-.9-15.7,18.1h-12.6Z"/>
      <path d="M112.4,100s1.6-17.2,15.5-18.6c0,0-8.9-1.5-13.5,3.2,0,0,0-11.2,2.7-17.4,0,0-5.1,5.4-7.2,15.6,0,0,.9-14.2-7.7-17.5,0,0,5,4.9,2.6,16.4,0,0-3.3-8.6-10.8-9.4,0,0,4.6,3.7,6,11,0,0-6.1-9.2-17.5-2.4,0,0,18.7-1,16.6,19.1h13.3Z"/>
      <path d="M29.9,98c4.8-21.4,28.1-14.7,28.1-14.7-18.2-10.3-28.5,5.9-28.5,5.9,3.2-13.5,21-13.1,21-13.1-18.2-4.8-24.2,9.1-24.2,9.1-2-19.8,13.1-24.2,13.1-24.2-20.2,2.8-15.5,28.9-15.5,28.9-3.6-5.9-10.7-9.9-10.7-9.9,9.5,7.1,10.7,19.8,10.7,19.8h5.5l.4-2Z"/>
      <path d="M66.2,98c-4.8-21.4-28.1-14.7-28.1-14.7,18.2-10.3,28.5,5.9,28.5,5.9-3.2-13.5-21-13.1-21-13.1,18.2-4.8,24.2,9.1,24.2,9.1,2-19.8-13.1-24.2-13.1-24.2,20.2,2.8,15.5,28.9,15.5,28.9,3.6-5.9,10.7-9.9,10.7-9.9-9.5,7.1-10.7,19.8-10.7,19.8h-5.5l-.4-2Z"/>
      <path d="M83.3,98.5c1.5-12.8-8.3-18.1-8.3-18.1,5.3-.7,8,2.4,8,2.4-1.1-6.7-7.1-12.8-7.1-12.8,8.6,2.7,13.5,11.9,13.5,11.9,0-8.8-4.6-16.3-4.6-16.3,11,9.9,11.5,21,11.5,21,1.8-4.2,0-9.9,0-9.9,10.2,11.3,0,23.4,0,23.4h-13l.2-1.5Z"/>
      <path d="M72.4,100s-1.5-11.5-14.6-12.5c0,0,8.4-1,12.7,2.1,0,0,0-7.5-2.6-11.6,0,0,4.8,3.6,6.8,10.5,0,0-.9-9.5,7.3-11.7,0,0-4.7,3.3-2.4,11,0,0,3.2-5.7,10.2-6.3,0,0-4.4,2.4-5.7,7.4,0,0,5.8-6.2,16.5-1.6,0,0-17.7-.7-15.7,12.8h-12.6Z"/>
      <path d="M123.8,98.4c-1.6-13.5,8.8-19.2,8.8-19.2-5.6-.7-8.4,2.5-8.4,2.5,1.2-7,7.5-13.5,7.5-13.5-9.1,2.8-14.2,12.6-14.2,12.6,0-9.3,4.9-17.3,4.9-17.3-11.7,10.5-12.1,22.2-12.1,22.2-1.9-4.4,0-10.5,0-10.5-10.7,11.9,0,24.7,0,24.7h13.8l-.2-1.6Z"/>
      <path d="M135.1,100s1.6-12.2,15.5-13.2c0,0-8.9-1-13.5,2.2,0,0,0-7.9,2.7-12.3,0,0-5.1,3.8-7.2,11.1,0,0,.9-10-7.7-12.4,0,0,5,3.5,2.6,11.6,0,0-3.3-6.1-10.8-6.6,0,0,4.6,2.6,6,7.8,0,0-6.1-6.5-17.5-1.7,0,0,18.7-.7,16.6,13.5h13.3Z"/>
      <path d="M41.4,100s1.5-16.5,14.9-17.9c0,0-8.5-1.4-13,3,0,0,0-10.7,2.6-16.7,0,0-4.9,5.2-6.9,15,0,0,.9-13.7-7.4-16.9,0,0,4.8,4.7,2.5,15.8,0,0-3.2-8.3-10.4-9,0,0,4.5,3.5,5.8,10.6,0,0-5.9-8.9-16.8-2.3,0,0,18-.9,16,18.4h12.8Z"/>
      <path d="M46.4,98.5c-1.6-13,8.5-18.4,8.5-18.4-5.4-.7-8.1,2.4-8.1,2.4,1.1-6.8,7.2-13,7.2-13-8.8,2.7-13.7,12.1-13.7,12.1,0-9,4.7-16.6,4.7-16.6-11.2,10.1-11.7,21.3-11.7,21.3-1.8-4.3,0-10.1,0-10.1-10.3,11.5,0,23.8,0,23.8h13.3l-.2-1.5Z"/>
      <path d="M57.2,100s1.5-11.7,14.9-12.7c0,0-8.5-1-13,2.2,0,0,0-7.6,2.6-11.8,0,0-4.9,3.7-6.9,10.6,0,0,.9-9.7-7.4-11.9,0,0,4.8,3.4,2.5,11.2,0,0-3.2-5.8-10.4-6.4,0,0,4.5,2.5,5.8,7.5,0,0-5.9-6.3-16.8-1.6,0,0,18-.7,16,13h12.8Z"/>
      <path d="M66.8,100s1.5-11.7,14.9-12.7c0,0-8.5-1-13,2.2,0,0,0-7.6,2.6-11.8,0,0-4.9,3.7-6.9,10.6,0,0,.9-9.7-7.4-11.9,0,0,4.8,3.4,2.5,11.2,0,0-3.2-5.8-10.4-6.4,0,0,4.5,2.5,5.8,7.5,0,0-5.9-6.3-16.8-1.6,0,0,18-.7,16,13h12.8Z"/>
      <g>
        <path d="M159.2,100s-1.8-19-17.1-20.6c0,0,9.8-1.6,14.9,3.5,0,0,0-12.4-3-19.2,0,0,5.6,6,8,17.3,0,0-1-15.7,8.5-19.4,0,0-5.5,5.5-2.8,18.2,0,0,3.7-9.5,12-10.4,0,0-5.1,4-6.6,12.2,0,0,6.7-10.2,19.4-2.6,0,0-20.7-1.1-18.4,21.2h-14.7Z"/>
        <path d="M135.8,97.9c-4.8-21.4-28.1-14.7-28.1-14.7,18.2-10.3,28.5,5.9,28.5,5.9-3.2-13.5-21-13.1-21-13.1,18.2-4.8,24.2,9.1,24.2,9.1,2-19.8-13.1-24.2-13.1-24.2,20.2,2.8,15.5,28.9,15.5,28.9,3.6-5.9,10.7-9.9,10.7-9.9-9.5,7.1-10.7,19.8-10.7,19.8h-5.5l-.4-2Z"/>
        <path d="M153.5,98.3c1.8-15-9.8-21.2-9.8-21.2,6.2-.8,9.3,2.8,9.3,2.8-1.3-7.8-8.3-15-8.3-15,10.1,3.1,15.8,14,15.8,14,0-10.4-5.4-19.1-5.4-19.1,12.9,11.6,13.5,24.6,13.5,24.6,2.1-4.9,0-11.6,0-11.6,11.9,13.2,0,27.3,0,27.3h-15.3l.2-1.7Z"/>
        <path d="M141,100s-1.8-13.5-17.1-14.6c0,0,9.8-1.2,14.9,2.5,0,0,0-8.7-3-13.6,0,0,5.6,4.2,8,12.2,0,0-1-11.1,8.5-13.8,0,0-5.5,3.9-2.8,12.9,0,0,3.7-6.7,12-7.4,0,0-5.1,2.9-6.6,8.6,0,0,6.7-7.2,19.4-1.9,0,0-20.7-.8-18.4,15h-14.7Z"/>
      </g>
    </g>
    <g class="st1">
      <path d="M280.6,98.8c1.3-10.8-7-15.3-7-15.3,4.5-.6,6.7,2,6.7,2-.9-5.6-6-10.8-6-10.8,7.3,2.2,11.3,10,11.3,10,0-7.4-3.9-13.8-3.9-13.8,9.3,8.4,9.7,17.7,9.7,17.7,1.5-3.5,0-8.4,0-8.4,8.6,9.5,0,19.7,0,19.7h-11v-1.2Z"/>
      <path d="M212.2,98.8c1.3-10.8-7-15.3-7-15.3,4.5-.6,6.7,2,6.7,2-.9-5.6-6-10.8-6-10.8,7.3,2.2,11.3,10,11.3,10,0-7.4-3.9-13.8-3.9-13.8,9.3,8.4,9.7,17.7,9.7,17.7,1.5-3.5,0-8.4,0-8.4,8.6,9.5,0,19.7,0,19.7h-11v-1.2Z"/>
      <g>
        <path d="M159,100s-1.8-19-17.1-20.6c0,0,9.8-1.6,14.9,3.5,0,0,0-12.4-3-19.2,0,0,5.6,6,8,17.3,0,0-1-15.7,8.5-19.4,0,0-5.5,5.5-2.8,18.2,0,0,3.7-9.5,12-10.4,0,0-5.1,4-6.6,12.2,0,0,6.7-10.2,19.4-2.6,0,0-20.7-1.1-18.4,21.2h-14.7Z"/>
        <path d="M135.5,97.9c-4.8-21.4-28.1-14.7-28.1-14.7,18.2-10.3,28.5,5.9,28.5,5.9-3.2-13.5-21-13.1-21-13.1,18.2-4.8,24.2,9.1,24.2,9.1,2-19.8-13.1-24.2-13.1-24.2,20.2,2.8,15.5,28.9,15.5,28.9,3.6-5.9,10.7-9.9,10.7-9.9-9.5,7.1-10.7,19.8-10.7,19.8h-5.5l-.4-2Z"/>
        <path d="M153.2,98.3c1.8-15-9.8-21.2-9.8-21.2,6.2-.8,9.3,2.8,9.3,2.8-1.3-7.8-8.3-15-8.3-15,10.1,3.1,15.8,14,15.8,14,0-10.4-5.4-19.1-5.4-19.1,12.9,11.6,13.5,24.6,13.5,24.6,2.1-4.9,0-11.6,0-11.6,11.9,13.2,0,27.3,0,27.3h-15.3l.2-1.7Z"/>
        <path d="M140.7,100s-1.8-13.5-17.1-14.6c0,0,9.8-1.2,14.9,2.5,0,0,0-8.7-3-13.6,0,0,5.6,4.2,8,12.2,0,0-1-11.1,8.5-13.8,0,0-5.5,3.9-2.8,12.9,0,0,3.7-6.7,12-7.4,0,0-5.1,2.9-6.6,8.6,0,0,6.7-7.2,19.4-1.9,0,0-20.7-.8-18.4,15h-14.7Z"/>
      </g>
      <path d="M238,100s-1.5-16.3-14.6-17.6c0,0,8.4-1.4,12.7,3,0,0,0-10.5-2.6-16.4,0,0,4.8,5.1,6.8,14.8,0,0-.9-13.4,7.3-16.6,0,0-4.7,4.7-2.4,15.5,0,0,3.2-8.1,10.2-8.9,0,0-4.4,3.5-5.7,10.4,0,0,5.8-8.7,16.5-2.3,0,0-17.7-.9-15.7,18.1h-12.6Z"/>
      <path d="M262.2,100s1.6-17.2,15.5-18.6c0,0-8.9-1.5-13.5,3.2,0,0,0-11.2,2.7-17.4,0,0-5.1,5.4-7.2,15.6,0,0,.9-14.2-7.7-17.5,0,0,5,4.9,2.6,16.4,0,0-3.3-8.6-10.8-9.4,0,0,4.6,3.7,6,11,0,0-6.1-9.2-17.5-2.4,0,0,18.7-1,16.6,19.1h13.3Z"/>
      <path d="M179.6,98c4.8-21.4,28.1-14.7,28.1-14.7-18.2-10.3-28.5,5.9-28.5,5.9,3.2-13.5,21-13.1,21-13.1-18.2-4.8-24.2,9.1-24.2,9.1-2-19.8,13.1-24.2,13.1-24.2-20.2,2.8-15.5,28.9-15.5,28.9-3.6-5.9-10.7-9.9-10.7-9.9,9.5,7.1,10.7,19.8,10.7,19.8h5.5l.4-2Z"/>
      <path d="M215.9,98c-4.8-21.4-28.1-14.7-28.1-14.7,18.2-10.3,28.5,5.9,28.5,5.9-3.2-13.5-21-13.1-21-13.1,18.2-4.8,24.2,9.1,24.2,9.1,2-19.8-13.1-24.2-13.1-24.2,20.2,2.8,15.5,28.9,15.5,28.9,3.6-5.9,10.7-9.9,10.7-9.9-9.5,7.1-10.7,19.8-10.7,19.8h-5.5l-.4-2Z"/>
      <path d="M233.1,98.5c1.5-12.8-8.3-18.1-8.3-18.1,5.3-.7,8,2.4,8,2.4-1.1-6.7-7.1-12.8-7.1-12.8,8.6,2.7,13.5,11.9,13.5,11.9,0-8.8-4.6-16.3-4.6-16.3,11,9.9,11.5,21,11.5,21,1.8-4.2,0-9.9,0-9.9,10.2,11.3,0,23.4,0,23.4h-13l.2-1.5Z"/>
      <path d="M222.2,100s-1.5-11.5-14.6-12.5c0,0,8.4-1,12.7,2.1,0,0,0-7.5-2.6-11.6,0,0,4.8,3.6,6.8,10.5,0,0-.9-9.5,7.3-11.7,0,0-4.7,3.3-2.4,11,0,0,3.2-5.7,10.2-6.3,0,0-4.4,2.4-5.7,7.4,0,0,5.8-6.2,16.5-1.6,0,0-17.7-.7-15.7,12.8h-12.6Z"/>
      <path d="M273.6,98.4c-1.6-13.5,8.8-19.2,8.8-19.2-5.6-.7-8.4,2.5-8.4,2.5,1.2-7,7.5-13.5,7.5-13.5-9.1,2.8-14.2,12.6-14.2,12.6,0-9.3,4.9-17.3,4.9-17.3-11.7,10.5-12.1,22.2-12.1,22.2-1.9-4.4,0-10.5,0-10.5-10.7,11.9,0,24.7,0,24.7h13.8l-.2-1.6Z"/>
      <path d="M284.8,100s1.6-12.2,15.5-13.2c0,0-8.9-1-13.5,2.2,0,0,0-7.9,2.7-12.3,0,0-5.1,3.8-7.2,11.1,0,0,.9-10-7.7-12.4,0,0,5,3.5,2.6,11.6,0,0-3.3-6.1-10.8-6.6,0,0,4.6,2.6,6,7.8,0,0-6.1-6.5-17.5-1.7,0,0,18.7-.7,16.6,13.5h13.3Z"/>
      <path d="M191.1,100s1.5-16.5,14.9-17.9c0,0-8.5-1.4-13,3,0,0,0-10.7,2.6-16.7,0,0-4.9,5.2-6.9,15,0,0,.9-13.7-7.4-16.9,0,0,4.8,4.7,2.5,15.8,0,0-3.2-8.3-10.4-9,0,0,4.5,3.5,5.8,10.6,0,0-5.9-8.9-16.8-2.3,0,0,18-.9,16,18.4h12.8Z"/>
      <path d="M196.1,98.5c-1.6-13,8.5-18.4,8.5-18.4-5.4-.7-8.1,2.4-8.1,2.4,1.1-6.8,7.2-13,7.2-13-8.8,2.7-13.7,12.1-13.7,12.1,0-9,4.7-16.6,4.7-16.6-11.2,10.1-11.7,21.3-11.7,21.3-1.8-4.3,0-10.1,0-10.1-10.3,11.5,0,23.8,0,23.8h13.3l-.2-1.5Z"/>
      <path d="M207,100s1.5-11.7,14.9-12.7c0,0-8.5-1-13,2.2,0,0,0-7.6,2.6-11.8,0,0-4.9,3.7-6.9,10.6,0,0,.9-9.7-7.4-11.9,0,0,4.8,3.4,2.5,11.2,0,0-3.2-5.8-10.4-6.4,0,0,4.5,2.5,5.8,7.5,0,0-5.9-6.3-16.8-1.6,0,0,18-.7,16,13h12.8Z"/>
      <path d="M216.6,100s1.5-11.7,14.9-12.7c0,0-8.5-1-13,2.2,0,0,0-7.6,2.6-11.8,0,0-4.9,3.7-6.9,10.6,0,0,.9-9.7-7.4-11.9,0,0,4.8,3.4,2.5,11.2,0,0-3.2-5.8-10.4-6.4,0,0,4.5,2.5,5.8,7.5,0,0-5.9-6.3-16.8-1.6,0,0,18-.7,16,13h12.8Z"/>
      <g>
        <path d="M309,100s-1.8-19-17.1-20.6c0,0,9.8-1.6,14.9,3.5,0,0,0-12.4-3-19.2,0,0,5.6,6,8,17.3,0,0-1-15.7,8.5-19.4,0,0-5.5,5.5-2.8,18.2,0,0,3.7-9.5,12-10.4,0,0-5.1,4-6.6,12.2,0,0,6.7-10.2,19.4-2.6,0,0-20.7-1.1-18.4,21.2h-14.7Z"/>
        <path d="M285.5,97.9c-4.8-21.4-28.1-14.7-28.1-14.7,18.2-10.3,28.5,5.9,28.5,5.9-3.2-13.5-21-13.1-21-13.1,18.2-4.8,24.2,9.1,24.2,9.1,2-19.8-13.1-24.2-13.1-24.2,20.2,2.8,15.5,28.9,15.5,28.9,3.6-5.9,10.7-9.9,10.7-9.9-9.5,7.1-10.7,19.8-10.7,19.8h-5.5l-.4-2Z"/>
        <path d="M303.2,98.3c1.8-15-9.8-21.2-9.8-21.2,6.2-.8,9.3,2.8,9.3,2.8-1.3-7.8-8.3-15-8.3-15,10.1,3.1,15.8,14,15.8,14,0-10.4-5.4-19.1-5.4-19.1,12.9,11.6,13.5,24.6,13.5,24.6,2.1-4.9,0-11.6,0-11.6,11.9,13.2,0,27.3,0,27.3h-15.3l.2-1.7Z"/>
        <path d="M290.7,100s-1.8-13.5-17.1-14.6c0,0,9.8-1.2,14.9,2.5,0,0,0-8.7-3-13.6,0,0,5.6,4.2,8,12.2,0,0-1-11.1,8.5-13.8,0,0-5.5,3.9-2.8,12.9,0,0,3.7-6.7,12-7.4,0,0-5.1,2.9-6.6,8.6,0,0,6.7-7.2,19.4-1.9,0,0-20.7-.8-18.4,15h-14.7Z"/>
      </g>
    </g>
    <g class="st2">
      <path d="M430.4,98.8c1.3-10.8-7-15.3-7-15.3,4.5-.6,6.7,2,6.7,2-.9-5.6-6-10.8-6-10.8,7.3,2.2,11.3,10,11.3,10,0-7.4-3.9-13.8-3.9-13.8,9.3,8.4,9.7,17.7,9.7,17.7,1.5-3.5,0-8.4,0-8.4,8.6,9.5,0,19.7,0,19.7h-11v-1.2Z"/>
      <path d="M362,98.8c1.3-10.8-7-15.3-7-15.3,4.5-.6,6.7,2,6.7,2-.9-5.6-6-10.8-6-10.8,7.3,2.2,11.3,10,11.3,10,0-7.4-3.9-13.8-3.9-13.8,9.3,8.4,9.7,17.7,9.7,17.7,1.5-3.5,0-8.4,0-8.4,8.6,9.5,0,19.7,0,19.7h-11v-1.2Z"/>
      <g>
        <path d="M308.7,100s-1.8-19-17.1-20.6c0,0,9.8-1.6,14.9,3.5,0,0,0-12.4-3-19.2,0,0,5.6,6,8,17.3,0,0-1-15.7,8.5-19.4,0,0-5.5,5.5-2.8,18.2,0,0,3.7-9.5,12-10.4,0,0-5.1,4-6.6,12.2,0,0,6.7-10.2,19.4-2.6,0,0-20.7-1.1-18.4,21.2h-14.7Z"/>
        <path d="M285.3,97.9c-4.8-21.4-28.1-14.7-28.1-14.7,18.2-10.3,28.5,5.9,28.5,5.9-3.2-13.5-21-13.1-21-13.1,18.2-4.8,24.2,9.1,24.2,9.1,2-19.8-13.1-24.2-13.1-24.2,20.2,2.8,15.5,28.9,15.5,28.9,3.6-5.9,10.7-9.9,10.7-9.9-9.5,7.1-10.7,19.8-10.7,19.8h-5.5l-.4-2Z"/>
        <path d="M303,98.3c1.8-15-9.8-21.2-9.8-21.2,6.2-.8,9.3,2.8,9.3,2.8-1.3-7.8-8.3-15-8.3-15,10.1,3.1,15.8,14,15.8,14,0-10.4-5.4-19.1-5.4-19.1,12.9,11.6,13.5,24.6,13.5,24.6,2.1-4.9,0-11.6,0-11.6,11.9,13.2,0,27.3,0,27.3h-15.3l.2-1.7Z"/>
        <path d="M290.5,100s-1.8-13.5-17.1-14.6c0,0,9.8-1.2,14.9,2.5,0,0,0-8.7-3-13.6,0,0,5.6,4.2,8,12.2,0,0-1-11.1,8.5-13.8,0,0-5.5,3.9-2.8,12.9,0,0,3.7-6.7,12-7.4,0,0-5.1,2.9-6.6,8.6,0,0,6.7-7.2,19.4-1.9,0,0-20.7-.8-18.4,15h-14.7Z"/>
      </g>
      <path d="M387.7,100s-1.5-16.3-14.6-17.6c0,0,8.4-1.4,12.7,3,0,0,0-10.5-2.6-16.4,0,0,4.8,5.1,6.8,14.8,0,0-.9-13.4,7.3-16.6,0,0-4.7,4.7-2.4,15.5,0,0,3.2-8.1,10.2-8.9,0,0-4.4,3.5-5.7,10.4,0,0,5.8-8.7,16.5-2.3,0,0-17.7-.9-15.7,18.1h-12.6Z"/>
      <path d="M411.9,100s1.6-17.2,15.5-18.6c0,0-8.9-1.5-13.5,3.2,0,0,0-11.2,2.7-17.4,0,0-5.1,5.4-7.2,15.6,0,0,.9-14.2-7.7-17.5,0,0,5,4.9,2.6,16.4,0,0-3.3-8.6-10.8-9.4,0,0,4.6,3.7,6,11,0,0-6.1-9.2-17.5-2.4,0,0,18.7-1,16.6,19.1h13.3Z"/>
      <path d="M329.4,98c4.8-21.4,28.1-14.7,28.1-14.7-18.2-10.3-28.5,5.9-28.5,5.9,3.2-13.5,21-13.1,21-13.1-18.2-4.8-24.2,9.1-24.2,9.1-2-19.8,13.1-24.2,13.1-24.2-20.2,2.8-15.5,28.9-15.5,28.9-3.6-5.9-10.7-9.9-10.7-9.9,9.5,7.1,10.7,19.8,10.7,19.8h5.5l.4-2Z"/>
      <path d="M365.7,98c-4.8-21.4-28.1-14.7-28.1-14.7,18.2-10.3,28.5,5.9,28.5,5.9-3.2-13.5-21-13.1-21-13.1,18.2-4.8,24.2,9.1,24.2,9.1,2-19.8-13.1-24.2-13.1-24.2,20.2,2.8,15.5,28.9,15.5,28.9,3.6-5.9,10.7-9.9,10.7-9.9-9.5,7.1-10.7,19.8-10.7,19.8h-5.5l-.4-2Z"/>
      <path d="M382.8,98.5c1.5-12.8-8.3-18.1-8.3-18.1,5.3-.7,8,2.4,8,2.4-1.1-6.7-7.1-12.8-7.1-12.8,8.6,2.7,13.5,11.9,13.5,11.9,0-8.8-4.6-16.3-4.6-16.3,11,9.9,11.5,21,11.5,21,1.8-4.2,0-9.9,0-9.9,10.2,11.3,0,23.4,0,23.4h-13l.2-1.5Z"/>
      <path d="M371.9,100s-1.5-11.5-14.6-12.5c0,0,8.4-1,12.7,2.1,0,0,0-7.5-2.6-11.6,0,0,4.8,3.6,6.8,10.5,0,0-.9-9.5,7.3-11.7,0,0-4.7,3.3-2.4,11,0,0,3.2-5.7,10.2-6.3,0,0-4.4,2.4-5.7,7.4,0,0,5.8-6.2,16.5-1.6,0,0-17.7-.7-15.7,12.8h-12.6Z"/>
      <path d="M423.3,98.4c-1.6-13.5,8.8-19.2,8.8-19.2-5.6-.7-8.4,2.5-8.4,2.5,1.2-7,7.5-13.5,7.5-13.5-9.1,2.8-14.2,12.6-14.2,12.6,0-9.3,4.9-17.3,4.9-17.3-11.7,10.5-12.1,22.2-12.1,22.2-1.9-4.4,0-10.5,0-10.5-10.7,11.9,0,24.7,0,24.7h13.8l-.2-1.6Z"/>
      <path d="M434.6,100s1.6-12.2,15.5-13.2c0,0-8.9-1-13.5,2.2,0,0,0-7.9,2.7-12.3,0,0-5.1,3.8-7.2,11.1,0,0,.9-10-7.7-12.4,0,0,5,3.5,2.6,11.6,0,0-3.3-6.1-10.8-6.6,0,0,4.6,2.6,6,7.8,0,0-6.1-6.5-17.5-1.7,0,0,18.7-.7,16.6,13.5h13.3Z"/>
      <path d="M340.9,100s1.5-16.5,14.9-17.9c0,0-8.5-1.4-13,3,0,0,0-10.7,2.6-16.7,0,0-4.9,5.2-6.9,15,0,0,.9-13.7-7.4-16.9,0,0,4.8,4.7,2.5,15.8,0,0-3.2-8.3-10.4-9,0,0,4.5,3.5,5.8,10.6,0,0-5.9-8.9-16.8-2.3,0,0,18-.9,16,18.4h12.8Z"/>
      <path d="M345.9,98.5c-1.6-13,8.5-18.4,8.5-18.4-5.4-.7-8.1,2.4-8.1,2.4,1.1-6.8,7.2-13,7.2-13-8.8,2.7-13.7,12.1-13.7,12.1,0-9,4.7-16.6,4.7-16.6-11.2,10.1-11.7,21.3-11.7,21.3-1.8-4.3,0-10.1,0-10.1-10.3,11.5,0,23.8,0,23.8h13.3l-.2-1.5Z"/>
      <path d="M356.7,100s1.5-11.7,14.9-12.7c0,0-8.5-1-13,2.2,0,0,0-7.6,2.6-11.8,0,0-4.9,3.7-6.9,10.6,0,0,.9-9.7-7.4-11.9,0,0,4.8,3.4,2.5,11.2,0,0-3.2-5.8-10.4-6.4,0,0,4.5,2.5,5.8,7.5,0,0-5.9-6.3-16.8-1.6,0,0,18-.7,16,13h12.8Z"/>
      <path d="M366.3,100s1.5-11.7,14.9-12.7c0,0-8.5-1-13,2.2,0,0,0-7.6,2.6-11.8,0,0-4.9,3.7-6.9,10.6,0,0,.9-9.7-7.4-11.9,0,0,4.8,3.4,2.5,11.2,0,0-3.2-5.8-10.4-6.4,0,0,4.5,2.5,5.8,7.5,0,0-5.9-6.3-16.8-1.6,0,0,18-.7,16,13h12.8Z"/>
      <g>
        <path d="M458.7,100s-1.8-19-17.1-20.6c0,0,9.8-1.6,14.9,3.5,0,0,0-12.4-3-19.2,0,0,5.6,6,8,17.3,0,0-1-15.7,8.5-19.4,0,0-5.5,5.5-2.8,18.2,0,0,3.7-9.5,12-10.4,0,0-5.1,4-6.6,12.2,0,0,6.7-10.2,19.4-2.6,0,0-20.7-1.1-18.4,21.2h-14.7Z"/>
        <path d="M435.3,97.9c-4.8-21.4-28.1-14.7-28.1-14.7,18.2-10.3,28.5,5.9,28.5,5.9-3.2-13.5-21-13.1-21-13.1,18.2-4.8,24.2,9.1,24.2,9.1,2-19.8-13.1-24.2-13.1-24.2,20.2,2.8,15.5,28.9,15.5,28.9,3.6-5.9,10.7-9.9,10.7-9.9-9.5,7.1-10.7,19.8-10.7,19.8h-5.5l-.4-2Z"/>
        <path d="M453,98.3c1.8-15-9.8-21.2-9.8-21.2,6.2-.8,9.3,2.8,9.3,2.8-1.3-7.8-8.3-15-8.3-15,10.1,3.1,15.8,14,15.8,14,0-10.4-5.4-19.1-5.4-19.1,12.9,11.6,13.5,24.6,13.5,24.6,2.1-4.9,0-11.6,0-11.6,11.9,13.2,0,27.3,0,27.3h-15.3l.2-1.7Z"/>
        <path d="M440.5,100s-1.8-13.5-17.1-14.6c0,0,9.8-1.2,14.9,2.5,0,0,0-8.7-3-13.6,0,0,5.6,4.2,8,12.2,0,0-1-11.1,8.5-13.8,0,0-5.5,3.9-2.8,12.9,0,0,3.7-6.7,12-7.4,0,0-5.1,2.9-6.6,8.6,0,0,6.7-7.2,19.4-1.9,0,0-20.7-.8-18.4,15h-14.7Z"/>
      </g>
    </g>
  </g>
</svg>